<?xml version="1.0" standalone="no" ?>
<!DOCTYPE svg PUBLIC "-//W3C//DTD SVG 1.1//EN" "http://www.w3.org/Graphics/SVG/1.1/DTD/svg11.dtd">
<svg width="29760px" height="3520px" xmlns="http://www.w3.org/2000/svg" version="1.1" >
	<rect x="10" y="10" width="3700" height="3500" fill="rgb(255,255,255)" />
	<polyline points="711.643,1041.36 1029.08,1108.16 1010,1010 977.443,915.448 892.443,848.197 711.643,1041.36 " fill="transparent" stroke-width="5" stroke="rgb(0,0,255)" />
	<polygon points="1010,1010 1029.08,1108.16 711.643,1041.36 892.443,848.197 977.443,915.448 " fill="rgb(200,160,220)" stroke-width="1" stroke="rgb(0,0,0)" />
	<rect x="3730" y="10" width="3700" height="3500" fill="rgb(255,255,255)" />
	<polyline points="4436.11,1414.51 5154.02,1274.96 4686.16,920.121 4544.56,935.079 4436.11,1414.51 " fill="transparent" stroke-width="5" stroke="rgb(0,0,255)" />
	<polygon points="4730,1010 5154.02,1274.96 4436.11,1414.51 4544.56,935.079 4686.16,920.121 " fill="rgb(200,160,220)" stroke-width="1" stroke="rgb(0,0,0)" />
	<rect x="7450" y="10" width="3700" height="3500" fill="rgb(255,255,255)" />
	<polyline points="8446.51,1109.94 8450,1010 8781.62,1233.68 8446.51,1109.94 " fill="transparent" stroke-width="5" stroke="rgb(0,0,255)" />
	<polygon points="8450,1010 8781.62,1233.68 8446.51,1109.94 " fill="rgb(200,160,220)" stroke-width="1" stroke="rgb(0,0,0)" />
	<rect x="11170" y="10" width="3700" height="3500" fill="rgb(255,255,255)" />
	<polyline points="11670,1010 12064,1179.61 12278.9,1177.73 12073.2,621.882 11940.6,682.339 11670,1010 " fill="transparent" stroke-width="5" stroke="rgb(0,0,255)" />
	<polygon points="12170,1010 12278.9,1177.73 12064,1179.61 12070.7,1022.19 11670,1010 12033.6,863.729 11940.6,682.339 12101.6,822.061 12114.9,817.748 12073.2,621.882 " fill="rgb(200,160,220)" stroke-width="1" stroke="rgb(0,0,0)" />
	<rect x="14890" y="10" width="3700" height="3500" fill="rgb(255,255,255)" />
	<polyline points="15726.2,895.285 15743.8,1488.15 16382.4,1096.82 15726.2,895.285 " fill="transparent" stroke-width="5" stroke="rgb(0,0,255)" />
	<polygon points="15890,1010 16382.4,1096.82 15952.9,1087.71 15743.8,1488.15 15726.2,895.285 15821.8,936.865 " fill="rgb(200,160,220)" stroke-width="1" stroke="rgb(0,0,0)" />
	<rect x="18610" y="10" width="3700" height="3500" fill="rgb(255,255,255)" />
	<polyline points="19195.5,1289.6 19662.3,1507.26 19610,1010 19519.2,831.799 19386.3,678.385 19347.6,708.116 19195.5,1289.6 " fill="transparent" stroke-width="5" stroke="rgb(0,0,255)" />
	<polygon points="19610,1010 19662.3,1507.26 19364.3,1182.07 19195.5,1289.6 19347.6,708.116 19386.3,678.385 19519.2,831.799 " fill="rgb(200,160,220)" stroke-width="1" stroke="rgb(0,0,0)" />
	<rect x="22330" y="10" width="3700" height="3500" fill="rgb(255,255,255)" />
	<polyline points="22956.6,1153.35 23193.6,1156.27 23330,1010 22956.6,1153.35 " fill="transparent" stroke-width="5" stroke="rgb(0,0,255)" />
	<polygon points="23330,1010 23193.6,1156.27 22956.6,1153.35 " fill="rgb(200,160,220)" stroke-width="1" stroke="rgb(0,0,0)" />
	<rect x="26050" y="10" width="3700" height="3500" fill="rgb(255,255,255)" />
	<polyline points="26650.7,1310.91 27050,1010 27058.7,1509.92 26650.7,1310.91 " fill="transparent" stroke-width="5" stroke="rgb(0,0,255)" />
	<polygon points="27050,1010 27058.7,1509.92 26650.7,1310.91 " fill="rgb(200,160,220)" stroke-width="1" stroke="rgb(0,0,0)" />
</svg>
