<?xml version="1.0" standalone="no" ?>
<!DOCTYPE svg PUBLIC "-//W3C//DTD SVG 1.1//EN" "http://www.w3.org/Graphics/SVG/1.1/DTD/svg11.dtd">
<svg width="55080px" height="1020px" xmlns="http://www.w3.org/2000/svg" version="1.1" >
	<rect x="10" y="10" width="1600" height="1000" fill="rgb(255,255,255)" />
	<polyline points="-439.94,228.069 -260.164,430.727 306.999,-32.327 306.999,-32.327 405.995,66.4599 403.753,-60.4184 306.999,-32.327 306.999,-32.327 255.792,-162.007 -260.138,-410.744 -439.94,228.069 " fill="transparent" stroke-width="5" stroke="rgb(0,0,255)" />
	<polygon points="255.792,-162.007 403.753,-60.4184 -439.94,228.069 105.767,-18.7874 -75.09,-277.68 405.995,66.4599 -260.164,430.727 -290,9.99096 -260.138,-410.744 306.999,-32.327 306.999,-32.327 " fill="rgb(200,160,220)" stroke-width="1" stroke="rgb(0,0,0)" />
	<rect x="1630" y="10" width="1600" height="1000" fill="rgb(255,255,255)" />
	<polyline points="1180.06,228.069 1359.84,430.727 1927,-32.327 1927,-32.327 2025.99,66.4599 2023.75,-60.4184 1927,-32.327 1927,-32.327 1875.79,-162.007 1359.86,-410.744 1180.06,228.069 " fill="transparent" stroke-width="5" stroke="rgb(0,0,255)" />
	<polygon points="1875.79,-162.007 2023.75,-60.4184 1180.06,228.069 1725.77,-18.7874 1544.91,-277.68 2025.99,66.4599 1359.84,430.727 1330,9.99096 1359.86,-410.744 1927,-32.327 1927,-32.327 " fill="rgb(200,160,220)" stroke-width="1" stroke="rgb(0,0,0)" />
	<rect x="3250" y="10" width="1600" height="1000" fill="rgb(255,255,255)" />
	<polyline points="2800.06,228.069 2979.84,430.727 3547,-32.327 3547,-32.327 3646,66.4599 3643.75,-60.4184 3547,-32.327 3547,-32.327 3495.79,-162.007 2979.86,-410.744 2800.06,228.069 " fill="transparent" stroke-width="5" stroke="rgb(0,0,255)" />
	<polygon points="3495.79,-162.007 3643.75,-60.4184 2800.06,228.069 3345.77,-18.7874 3164.91,-277.68 3646,66.4599 2979.84,430.727 2950,9.99096 2979.86,-410.744 3547,-32.327 3547,-32.327 " fill="rgb(200,160,220)" stroke-width="1" stroke="rgb(0,0,0)" />
	<rect x="4870" y="10" width="1600" height="1000" fill="rgb(255,255,255)" />
	<polyline points="4420.06,228.069 4599.84,430.727 5167,-32.327 5167,-32.327 5266,66.4599 5263.75,-60.4184 5167,-32.327 5167,-32.327 5115.79,-162.007 4599.86,-410.744 4420.06,228.069 " fill="transparent" stroke-width="5" stroke="rgb(0,0,255)" />
	<polygon points="5115.79,-162.007 5263.75,-60.4184 4420.06,228.069 4965.77,-18.7874 4784.91,-277.68 5266,66.4599 4599.84,430.727 4570,9.99096 4599.86,-410.744 5167,-32.327 5167,-32.327 " fill="rgb(200,160,220)" stroke-width="1" stroke="rgb(0,0,0)" />
	<rect x="6490" y="10" width="1600" height="1000" fill="rgb(255,255,255)" />
	<polyline points="6040.06,228.069 6219.84,430.727 6787,-32.327 6787,-32.327 6886,66.4599 6883.75,-60.4184 6787,-32.327 6787,-32.327 6735.79,-162.007 6219.86,-410.744 6040.06,228.069 " fill="transparent" stroke-width="5" stroke="rgb(0,0,255)" />
	<polygon points="6735.79,-162.007 6883.75,-60.4184 6040.06,228.069 6585.77,-18.7874 6404.91,-277.68 6886,66.4599 6219.84,430.727 6190,9.99096 6219.86,-410.744 6787,-32.327 6787,-32.327 " fill="rgb(200,160,220)" stroke-width="1" stroke="rgb(0,0,0)" />
	<rect x="8110" y="10" width="1600" height="1000" fill="rgb(255,255,255)" />
	<polyline points="7810.05,15.3015 7905.94,466.466 8407,52.345 8407,-32.327 8407,-32.327 8492.03,128.547 8495.04,118.374 8407,-32.327 8407,-32.327 8193.23,-171.857 7975.3,-137.84 7810.05,15.3015 " fill="transparent" stroke-width="5" stroke="rgb(0,0,255)" />
	<polygon points="8492.03,128.547 8171.26,-69.0415 7975.3,-137.84 7810.05,15.3015 8495.04,118.374 7905.94,466.466 8277.82,-98.799 8407,52.345 8001.93,178.291 8055.97,-74.1487 8193.23,-171.857 8407,-32.327 8407,-32.327 " fill="rgb(200,160,220)" stroke-width="1" stroke="rgb(0,0,0)" />
	<rect x="9730" y="10" width="1600" height="1000" fill="rgb(255,255,255)" />
	<polyline points="9430.05,15.3015 9525.95,466.466 10027,52.345 10027,-32.327 10027,-32.327 10112,128.547 10115,118.374 10027,-32.327 10027,-32.327 9813.23,-171.857 9595.3,-137.84 9430.05,15.3015 " fill="transparent" stroke-width="5" stroke="rgb(0,0,255)" />
	<polygon points="10112,128.547 9791.26,-69.0415 9595.3,-137.84 9430.05,15.3015 10115,118.374 9525.95,466.466 9897.82,-98.799 10027,52.345 9621.93,178.291 9675.97,-74.1487 9813.23,-171.857 10027,-32.327 10027,-32.327 " fill="rgb(200,160,220)" stroke-width="1" stroke="rgb(0,0,0)" />
	<rect x="11350" y="10" width="1600" height="1000" fill="rgb(255,255,255)" />
	<polyline points="11050,15.3015 11145.9,466.466 11647,52.345 11647,-32.327 11647,-32.327 11732,128.547 11735,118.374 11647,-32.327 11647,-32.327 11433.2,-171.857 11215.3,-137.84 11050,15.3015 " fill="transparent" stroke-width="5" stroke="rgb(0,0,255)" />
	<polygon points="11732,128.547 11411.3,-69.0415 11215.3,-137.84 11050,15.3015 11735,118.374 11145.9,466.466 11517.8,-98.799 11647,52.345 11241.9,178.291 11296,-74.1487 11433.2,-171.857 11647,-32.327 11647,-32.327 " fill="rgb(200,160,220)" stroke-width="1" stroke="rgb(0,0,0)" />
	<rect x="12970" y="10" width="1600" height="1000" fill="rgb(255,255,255)" />
	<polyline points="12670,15.3015 12765.9,466.466 13267,52.345 13267,-32.327 13267,-32.327 13352,128.547 13355,118.374 13267,-32.327 13267,-32.327 13053.2,-171.857 12835.3,-137.84 12670,15.3015 " fill="transparent" stroke-width="5" stroke="rgb(0,0,255)" />
	<polygon points="13352,128.547 13031.3,-69.0415 12835.3,-137.84 12670,15.3015 13355,118.374 12765.9,466.466 13137.8,-98.799 13267,52.345 12861.9,178.291 12916,-74.1487 13053.2,-171.857 13267,-32.327 13267,-32.327 " fill="rgb(200,160,220)" stroke-width="1" stroke="rgb(0,0,0)" />
	<rect x="14590" y="10" width="1600" height="1000" fill="rgb(255,255,255)" />
	<polyline points="14290,15.3015 14385.9,466.466 14887,52.345 14887,-32.327 14887,-32.327 14972,128.547 14975,118.374 14887,-32.327 14887,-32.327 14673.2,-171.857 14455.3,-137.84 14290,15.3015 " fill="transparent" stroke-width="5" stroke="rgb(0,0,255)" />
	<polygon points="14972,128.547 14651.3,-69.0415 14455.3,-137.84 14290,15.3015 14975,118.374 14385.9,466.466 14757.8,-98.799 14887,52.345 14481.9,178.291 14536,-74.1487 14673.2,-171.857 14887,-32.327 14887,-32.327 " fill="rgb(200,160,220)" stroke-width="1" stroke="rgb(0,0,0)" />
	<rect x="16210" y="10" width="1600" height="1000" fill="rgb(255,255,255)" />
	<polyline points="15910,15.3015 16005.9,466.466 16507,52.345 16507,-32.327 16507,-32.327 16592,128.547 16595,118.374 16507,-32.327 16507,-32.327 16293.2,-171.857 16075.3,-137.84 15910,15.3015 " fill="transparent" stroke-width="5" stroke="rgb(0,0,255)" />
	<polygon points="16592,128.547 16271.3,-69.0415 16075.3,-137.84 15910,15.3015 16595,118.374 16005.9,466.466 16377.8,-98.799 16507,52.345 16101.9,178.291 16156,-74.1487 16293.2,-171.857 16507,-32.327 16507,-32.327 " fill="rgb(200,160,220)" stroke-width="1" stroke="rgb(0,0,0)" />
	<rect x="17830" y="10" width="1600" height="1000" fill="rgb(255,255,255)" />
	<polyline points="17530,15.3015 17625.9,466.466 18127,52.345 18127,-32.327 18127,-32.327 18212,128.547 18215,118.374 18127,-32.327 18127,-32.327 17913.2,-171.857 17695.3,-137.84 17530,15.3015 " fill="transparent" stroke-width="5" stroke="rgb(0,0,255)" />
	<polygon points="18212,128.547 17891.3,-69.0415 17695.3,-137.84 17530,15.3015 18215,118.374 17625.9,466.466 17997.8,-98.799 18127,52.345 17721.9,178.291 17776,-74.1487 17913.2,-171.857 18127,-32.327 18127,-32.327 " fill="rgb(200,160,220)" stroke-width="1" stroke="rgb(0,0,0)" />
	<rect x="19450" y="10" width="1600" height="1000" fill="rgb(255,255,255)" />
	<polyline points="19150,15.3015 19245.9,466.466 19747,52.345 19747,-32.327 19747,-32.327 19832,128.547 19835,118.374 19747,-32.327 19747,-32.327 19533.2,-171.857 19315.3,-137.84 19150,15.3015 " fill="transparent" stroke-width="5" stroke="rgb(0,0,255)" />
	<polygon points="19832,128.547 19511.3,-69.0415 19315.3,-137.84 19150,15.3015 19835,118.374 19245.9,466.466 19617.8,-98.799 19747,52.345 19341.9,178.291 19396,-74.1487 19533.2,-171.857 19747,-32.327 19747,-32.327 " fill="rgb(200,160,220)" stroke-width="1" stroke="rgb(0,0,0)" />
	<rect x="21070" y="10" width="1600" height="1000" fill="rgb(255,255,255)" />
	<polyline points="20670,9.98794 20767.2,407.903 21013.3,201.783 21013.3,201.783 21434.4,174.858 21067.8,-489.995 21013.3,201.783 21013.3,201.783 20799.9,-410.744 20685.9,-101.778 20670,9.98794 " fill="transparent" stroke-width="5" stroke="rgb(0,0,255)" />
	<polygon points="20767.2,407.903 21120.3,-76.4536 20877,-42.4808 20805.9,-290.403 20901.2,-97.32 21067.8,-489.995 21434.4,174.858 20768.4,272.786 20685.9,-101.778 21153.2,191.862 20670,9.98794 20799.9,-410.744 21013.3,201.783 21013.3,201.783 " fill="rgb(200,160,220)" stroke-width="1" stroke="rgb(0,0,0)" />
	<rect x="22690" y="10" width="1600" height="1000" fill="rgb(255,255,255)" />
	<polyline points="22290,9.98794 22387.2,407.903 22633.3,201.783 22633.3,201.783 23054.4,174.858 22687.8,-489.995 22633.3,201.783 22633.3,201.783 22419.9,-410.744 22305.9,-101.778 22290,9.98794 " fill="transparent" stroke-width="5" stroke="rgb(0,0,255)" />
	<polygon points="22387.2,407.903 22740.3,-76.4536 22497,-42.4808 22425.9,-290.403 22521.2,-97.32 22687.8,-489.995 23054.4,174.858 22388.4,272.786 22305.9,-101.778 22773.2,191.862 22290,9.98794 22419.9,-410.744 22633.3,201.783 22633.3,201.783 " fill="rgb(200,160,220)" stroke-width="1" stroke="rgb(0,0,0)" />
	<rect x="24310" y="10" width="1600" height="1000" fill="rgb(255,255,255)" />
	<polyline points="23910,9.98794 24007.2,407.903 24253.3,201.783 24253.3,201.783 24674.4,174.858 24307.8,-489.995 24253.3,201.783 24253.3,201.783 24039.9,-410.744 23925.9,-101.778 23910,9.98794 " fill="transparent" stroke-width="5" stroke="rgb(0,0,255)" />
	<polygon points="24007.2,407.903 24360.3,-76.4536 24117,-42.4808 24045.9,-290.403 24141.2,-97.32 24307.8,-489.995 24674.4,174.858 24008.4,272.786 23925.9,-101.778 24393.2,191.862 23910,9.98794 24039.9,-410.744 24253.3,201.783 24253.3,201.783 " fill="rgb(200,160,220)" stroke-width="1" stroke="rgb(0,0,0)" />
	<rect x="25930" y="10" width="1600" height="1000" fill="rgb(255,255,255)" />
	<polyline points="25530,9.98794 25627.2,407.903 25873.3,201.783 25873.3,201.783 26294.4,174.858 25927.8,-489.995 25873.3,201.783 25873.3,201.783 25659.9,-410.744 25545.9,-101.778 25530,9.98794 " fill="transparent" stroke-width="5" stroke="rgb(0,0,255)" />
	<polygon points="25627.2,407.903 25980.3,-76.4536 25737,-42.4808 25665.9,-290.403 25761.2,-97.32 25927.8,-489.995 26294.4,174.858 25628.4,272.786 25545.9,-101.778 26013.2,191.862 25530,9.98794 25659.9,-410.744 25873.3,201.783 25873.3,201.783 " fill="rgb(200,160,220)" stroke-width="1" stroke="rgb(0,0,0)" />
	<rect x="27550" y="10" width="1600" height="1000" fill="rgb(255,255,255)" />
	<polyline points="27598.2,-184.106 27604.8,93.6672 27716.4,373.724 27847,-32.327 27847,-32.327 27929.8,335.155 28048,54.1994 27847,-32.327 27847,-32.327 27598.2,-184.106 " fill="transparent" stroke-width="5" stroke="rgb(0,0,255)" />
	<polygon points="28048,54.1994 27598.2,-184.106 27604.8,93.6672 27929.8,335.155 27946,66.4599 27716.4,373.724 27847,-32.327 27847,-32.327 " fill="rgb(200,160,220)" stroke-width="1" stroke="rgb(0,0,0)" />
	<rect x="29170" y="10" width="1600" height="1000" fill="rgb(255,255,255)" />
	<polyline points="29218.2,-184.106 29224.8,93.6672 29336.4,373.724 29467,-32.327 29467,-32.327 29549.8,335.155 29668,54.1994 29467,-32.327 29467,-32.327 29218.2,-184.106 " fill="transparent" stroke-width="5" stroke="rgb(0,0,255)" />
	<polygon points="29668,54.1994 29218.2,-184.106 29224.8,93.6672 29549.8,335.155 29566,66.4599 29336.4,373.724 29467,-32.327 29467,-32.327 " fill="rgb(200,160,220)" stroke-width="1" stroke="rgb(0,0,0)" />
	<rect x="30790" y="10" width="1600" height="1000" fill="rgb(255,255,255)" />
	<polyline points="30838.2,-184.106 30844.8,93.6672 30956.4,373.724 31087,-32.327 31087,-32.327 31169.8,335.155 31288,54.1994 31087,-32.327 31087,-32.327 30838.2,-184.106 " fill="transparent" stroke-width="5" stroke="rgb(0,0,255)" />
	<polygon points="31288,54.1994 30838.2,-184.106 30844.8,93.6672 31169.8,335.155 31186,66.4599 30956.4,373.724 31087,-32.327 31087,-32.327 " fill="rgb(200,160,220)" stroke-width="1" stroke="rgb(0,0,0)" />
	<rect x="32410" y="10" width="1600" height="1000" fill="rgb(255,255,255)" />
	<polyline points="32458.2,-184.106 32464.8,93.6672 32576.4,373.724 32707,-32.327 32707,-32.327 32789.8,335.155 32908,54.1994 32707,-32.327 32707,-32.327 32458.2,-184.106 " fill="transparent" stroke-width="5" stroke="rgb(0,0,255)" />
	<polygon points="32908,54.1994 32458.2,-184.106 32464.8,93.6672 32789.8,335.155 32806,66.4599 32576.4,373.724 32707,-32.327 32707,-32.327 " fill="rgb(200,160,220)" stroke-width="1" stroke="rgb(0,0,0)" />
	<rect x="34030" y="10" width="1600" height="1000" fill="rgb(255,255,255)" />
	<polyline points="34078.2,-184.106 34084.8,93.6672 34196.4,373.724 34327,-32.327 34327,-32.327 34409.8,335.155 34528,54.1994 34327,-32.327 34327,-32.327 34078.2,-184.106 " fill="transparent" stroke-width="5" stroke="rgb(0,0,255)" />
	<polygon points="34528,54.1994 34078.2,-184.106 34084.8,93.6672 34409.8,335.155 34426,66.4599 34196.4,373.724 34327,-32.327 34327,-32.327 " fill="rgb(200,160,220)" stroke-width="1" stroke="rgb(0,0,0)" />
	<rect x="35650" y="10" width="1600" height="1000" fill="rgb(255,255,255)" />
	<polyline points="35698.2,-184.106 35704.8,93.6672 35816.4,373.724 35947,-32.327 35947,-32.327 36029.8,335.155 36148,54.1994 35947,-32.327 35947,-32.327 35698.2,-184.106 " fill="transparent" stroke-width="5" stroke="rgb(0,0,255)" />
	<polygon points="36148,54.1994 35698.2,-184.106 35704.8,93.6672 36029.8,335.155 36046,66.4599 35816.4,373.724 35947,-32.327 35947,-32.327 " fill="rgb(200,160,220)" stroke-width="1" stroke="rgb(0,0,0)" />
	<rect x="37270" y="10" width="1600" height="1000" fill="rgb(255,255,255)" />
	<polyline points="37318.2,-184.106 37324.8,93.6672 37436.4,373.724 37567,-32.327 37567,-32.327 37649.8,335.155 37768,54.1994 37567,-32.327 37567,-32.327 37318.2,-184.106 " fill="transparent" stroke-width="5" stroke="rgb(0,0,255)" />
	<polygon points="37768,54.1994 37318.2,-184.106 37324.8,93.6672 37649.8,335.155 37666,66.4599 37436.4,373.724 37567,-32.327 37567,-32.327 " fill="rgb(200,160,220)" stroke-width="1" stroke="rgb(0,0,0)" />
	<rect x="38890" y="10" width="1600" height="1000" fill="rgb(255,255,255)" />
	<polyline points="38938.2,-184.106 38944.8,93.6672 39056.4,373.724 39187,-32.327 39187,-32.327 39269.8,335.155 39388,54.1994 39187,-32.327 39187,-32.327 38938.2,-184.106 " fill="transparent" stroke-width="5" stroke="rgb(0,0,255)" />
	<polygon points="39388,54.1994 38938.2,-184.106 38944.8,93.6672 39269.8,335.155 39286,66.4599 39056.4,373.724 39187,-32.327 39187,-32.327 " fill="rgb(200,160,220)" stroke-width="1" stroke="rgb(0,0,0)" />
	<rect x="40510" y="10" width="1600" height="1000" fill="rgb(255,255,255)" />
	<polyline points="40032.5,158.17 40718.1,464.655 40813.9,270.124 40906,66.4599 40906,-46.4361 40906,-46.4361 40929.5,-261.998 40906,-46.4361 40906,-46.4361 40723.1,-328.482 40347.9,-242.446 40032.5,158.17 " fill="transparent" stroke-width="5" stroke="rgb(0,0,255)" />
	<polygon points="40676.5,-239.532 40032.5,158.17 40212.6,-29.7145 40723.1,-328.482 40813.9,270.124 40237.8,136.042 40929.5,-261.998 40359.2,141.393 40481.6,-85.8933 40906,66.4599 40718.1,464.655 40347.9,-242.446 40634.9,-262.785 40906,-46.4361 40906,-46.4361 " fill="rgb(200,160,220)" stroke-width="1" stroke="rgb(0,0,0)" />
	<rect x="42130" y="10" width="1600" height="1000" fill="rgb(255,255,255)" />
	<polyline points="41652.5,158.17 42338.1,464.655 42433.9,270.124 42526,66.4599 42526,-46.4361 42526,-46.4361 42549.5,-261.998 42526,-46.4361 42526,-46.4361 42343.1,-328.482 41967.9,-242.446 41652.5,158.17 " fill="transparent" stroke-width="5" stroke="rgb(0,0,255)" />
	<polygon points="42296.5,-239.532 41652.5,158.17 41832.6,-29.7145 42343.1,-328.482 42433.9,270.124 41857.8,136.042 42549.5,-261.998 41979.2,141.393 42101.6,-85.8933 42526,66.4599 42338.1,464.655 41967.9,-242.446 42254.9,-262.785 42526,-46.4361 42526,-46.4361 " fill="rgb(200,160,220)" stroke-width="1" stroke="rgb(0,0,0)" />
	<rect x="43750" y="10" width="1600" height="1000" fill="rgb(255,255,255)" />
	<polyline points="43272.5,158.17 43958.1,464.655 44053.9,270.124 44146,66.4599 44146,-46.4361 44146,-46.4361 44169.5,-261.998 44146,-46.4361 44146,-46.4361 43963.1,-328.482 43587.9,-242.446 43272.5,158.17 " fill="transparent" stroke-width="5" stroke="rgb(0,0,255)" />
	<polygon points="43916.5,-239.532 43272.5,158.17 43452.6,-29.7145 43963.1,-328.482 44053.9,270.124 43477.8,136.042 44169.5,-261.998 43599.2,141.393 43721.6,-85.8933 44146,66.4599 43958.1,464.655 43587.9,-242.446 43874.9,-262.785 44146,-46.4361 44146,-46.4361 " fill="rgb(200,160,220)" stroke-width="1" stroke="rgb(0,0,0)" />
	<rect x="45370" y="10" width="1600" height="1000" fill="rgb(255,255,255)" />
	<polyline points="44892.5,158.17 45578.1,464.655 45673.9,270.124 45766,66.4599 45766,-46.4361 45766,-46.4361 45789.5,-261.998 45766,-46.4361 45766,-46.4361 45583.1,-328.482 45207.9,-242.446 44892.5,158.17 " fill="transparent" stroke-width="5" stroke="rgb(0,0,255)" />
	<polygon points="45536.5,-239.532 44892.5,158.17 45072.6,-29.7145 45583.1,-328.482 45673.9,270.124 45097.8,136.042 45789.5,-261.998 45219.2,141.393 45341.6,-85.8933 45766,66.4599 45578.1,464.655 45207.9,-242.446 45494.9,-262.785 45766,-46.4361 45766,-46.4361 " fill="rgb(200,160,220)" stroke-width="1" stroke="rgb(0,0,0)" />
	<rect x="46990" y="10" width="1600" height="1000" fill="rgb(255,255,255)" />
	<polyline points="46512.5,158.17 47198.1,464.655 47293.9,270.124 47386,66.4599 47386,-46.4361 47386,-46.4361 47409.5,-261.998 47386,-46.4361 47386,-46.4361 47203.1,-328.482 46827.9,-242.446 46512.5,158.17 " fill="transparent" stroke-width="5" stroke="rgb(0,0,255)" />
	<polygon points="47156.5,-239.532 46512.5,158.17 46692.6,-29.7145 47203.1,-328.482 47293.9,270.124 46717.8,136.042 47409.5,-261.998 46839.2,141.393 46961.6,-85.8933 47386,66.4599 47198.1,464.655 46827.9,-242.446 47114.9,-262.785 47386,-46.4361 47386,-46.4361 " fill="rgb(200,160,220)" stroke-width="1" stroke="rgb(0,0,0)" />
	<rect x="48610" y="10" width="1600" height="1000" fill="rgb(255,255,255)" />
	<polyline points="48132.5,158.17 48818.1,464.655 48913.9,270.124 49006,66.4599 49006,-46.4361 49006,-46.4361 49029.5,-261.998 49006,-46.4361 49006,-46.4361 48823.1,-328.482 48447.9,-242.446 48132.5,158.17 " fill="transparent" stroke-width="5" stroke="rgb(0,0,255)" />
	<polygon points="48776.5,-239.532 48132.5,158.17 48312.6,-29.7145 48823.1,-328.482 48913.9,270.124 48337.8,136.042 49029.5,-261.998 48459.2,141.393 48581.6,-85.8933 49006,66.4599 48818.1,464.655 48447.9,-242.446 48734.9,-262.785 49006,-46.4361 49006,-46.4361 " fill="rgb(200,160,220)" stroke-width="1" stroke="rgb(0,0,0)" />
	<rect x="50230" y="10" width="1600" height="1000" fill="rgb(255,255,255)" />
	<polyline points="49752.5,158.17 50438.1,464.655 50533.9,270.124 50626,66.4599 50626,-46.4361 50626,-46.4361 50649.5,-261.998 50626,-46.4361 50626,-46.4361 50443.1,-328.482 50067.9,-242.446 49752.5,158.17 " fill="transparent" stroke-width="5" stroke="rgb(0,0,255)" />
	<polygon points="50396.5,-239.532 49752.5,158.17 49932.6,-29.7145 50443.1,-328.482 50533.9,270.124 49957.8,136.042 50649.5,-261.998 50079.2,141.393 50201.6,-85.8933 50626,66.4599 50438.1,464.655 50067.9,-242.446 50354.9,-262.785 50626,-46.4361 50626,-46.4361 " fill="rgb(200,160,220)" stroke-width="1" stroke="rgb(0,0,0)" />
	<rect x="51850" y="10" width="1600" height="1000" fill="rgb(255,255,255)" />
	<polyline points="51372.5,158.17 52058.1,464.655 52153.9,270.124 52246,66.4599 52246,-46.4361 52246,-46.4361 52269.5,-261.998 52246,-46.4361 52246,-46.4361 52063.1,-328.482 51687.9,-242.446 51372.5,158.17 " fill="transparent" stroke-width="5" stroke="rgb(0,0,255)" />
	<polygon points="52016.5,-239.532 51372.5,158.17 51552.6,-29.7145 52063.1,-328.482 52153.9,270.124 51577.8,136.042 52269.5,-261.998 51699.2,141.393 51821.6,-85.8933 52246,66.4599 52058.1,464.655 51687.9,-242.446 51974.9,-262.785 52246,-46.4361 52246,-46.4361 " fill="rgb(200,160,220)" stroke-width="1" stroke="rgb(0,0,0)" />
	<rect x="53470" y="10" width="1600" height="1000" fill="rgb(255,255,255)" />
	<polyline points="52992.5,158.17 53678.1,464.655 53773.9,270.124 53866,66.4599 53866,-46.4361 53866,-46.4361 53889.5,-261.998 53866,-46.4361 53866,-46.4361 53683.1,-328.482 53307.9,-242.446 52992.5,158.17 " fill="transparent" stroke-width="5" stroke="rgb(0,0,255)" />
	<polygon points="53636.5,-239.532 52992.5,158.17 53172.6,-29.7145 53683.1,-328.482 53773.9,270.124 53197.8,136.042 53889.5,-261.998 53319.2,141.393 53441.6,-85.8933 53866,66.4599 53678.1,464.655 53307.9,-242.446 53594.9,-262.785 53866,-46.4361 53866,-46.4361 " fill="rgb(200,160,220)" stroke-width="1" stroke="rgb(0,0,0)" />
</svg>
