<?xml version="1.0" standalone="no" ?>
<!DOCTYPE svg PUBLIC "-//W3C//DTD SVG 1.1//EN" "http://www.w3.org/Graphics/SVG/1.1/DTD/svg11.dtd">
<svg width="3120px" height="720px" xmlns="http://www.w3.org/2000/svg" version="1.1" >
	<rect x="10" y="10" width="500" height="700" fill="rgb(255,255,255)" />
	<polygon points="10,10 10,160 160,160 " fill="rgb(200,160,220)" stroke-width="1" stroke="rgb(0,0,0)" />
	<rect x="530" y="10" width="500" height="700" fill="rgb(255,255,255)" />
	<polygon points="530,10 530,160 680,160 " fill="rgb(200,160,220)" stroke-width="1" stroke="rgb(0,0,0)" />
	<rect x="1050" y="10" width="500" height="700" fill="rgb(255,255,255)" />
	<polygon points="1050,110 1150,110 1250,10 1350,110 1450,110 1350,210 1350,310 1250,210 1150,310 1150,210 " fill="rgb(200,160,220)" stroke-width="1" stroke="rgb(0,0,0)" />
	<rect x="1570" y="10" width="500" height="700" fill="rgb(255,255,255)" />
	<polygon points="1570,110 1670,10 1770,10 1670,110 1770,210 1670,210 " fill="rgb(200,160,220)" stroke-width="1" stroke="rgb(0,0,0)" />
	<rect x="2090" y="10" width="500" height="700" fill="rgb(255,255,255)" />
	<polygon points="2190,10 2190,110 2090,110 2090,10 " fill="rgb(200,160,220)" stroke-width="1" stroke="rgb(0,0,0)" />
	<rect x="2610" y="10" width="500" height="700" fill="rgb(255,255,255)" />
	<polygon points="2610,10 2610,210 2810,210 2810,10 2760,10 2710,160 2660,10 " fill="rgb(200,160,220)" stroke-width="1" stroke="rgb(0,0,0)" />
</svg>
